#tb 0: 1/8000
#media_type 0: audio
#codec_id 0: pcm_s16le
#sample_rate 0: 8000
#channel_layout_name 0: mono
0,          0,          0,      240,      480, 0x4fa1aed9
0,        240,        240,      240,      480, 0x6d7ef391
0,        480,        480,      240,      480, 0xaecaf2c1
0,        720,        720,      240,      480, 0xd3b2ed0a
0,        960,        960,      240,      480, 0x33dceb4e
0,       1200,       1200,      240,      480, 0xc10eeb64
0,       1440,       1440,      240,      480, 0x7c0febff
0,       1680,       1680,      240,      480, 0x0c09eecd
0,       1920,       1920,      240,      480, 0xa5efdcf8
0,       2160,       2160,      240,      480, 0xb643edd2
0,       2400,       2400,      240,      480, 0x46bef26d
0,       2640,       2640,      240,      480, 0x4310f101
0,       2880,       2880,      240,      480, 0x3664ec16
0,       3120,       3120,      240,      480, 0xcc17e5e8
0,       3360,       3360,      240,      480, 0xff4cf35b
0,       3600,       3600,      240,      480, 0xdf4cf2e5
0,       3840,       3840,      240,      480, 0x093bf570
0,       4080,       4080,      240,      480, 0xd950ec75
0,       4320,       4320,      240,      480, 0xa469f2f8
0,       4560,       4560,      240,      480, 0x3558ee9d
0,       4800,       4800,      240,      480, 0x4102f252
0,       5040,       5040,      240,      480, 0xf9dff318
0,       5280,       5280,      240,      480, 0xd7cbef4d
0,       5520,       5520,      240,      480, 0x76c4eed3
0,       5760,       5760,      240,      480, 0xe3d6e9d1
0,       6000,       6000,      240,      480, 0x63baf340
0,       6240,       6240,      240,      480, 0xd2dff2ff
0,       6480,       6480,      240,      480, 0x3355ebc4
0,       6720,       6720,      240,      480, 0x7183ed76
0,       6960,       6960,      240,      480, 0x9806eff7
0,       7200,       7200,      240,      480, 0xc090ec04
0,       7440,       7440,      240,      480, 0xe76ff174
0,       7680,       7680,      240,      480, 0x2cdfe8f1
0,       7920,       7920,      240,      480, 0xbb69ee8a
0,       8160,       8160,      240,      480, 0x3e03f522
0,       8400,       8400,      240,      480, 0xe7e6e659
0,       8640,       8640,      240,      480, 0x4dbaf063
0,       8880,       8880,      240,      480, 0xc9b9f381
0,       9120,       9120,      240,      480, 0x3866edc9
0,       9360,       9360,      240,      480, 0x7e0defca
0,       9600,       9600,      240,      480, 0xa88bf700
0,       9840,       9840,      240,      480, 0x65a7f029
0,      10080,      10080,      240,      480, 0xaf8cf09d
0,      10320,      10320,      240,      480, 0x679bee1e
0,      10560,      10560,      240,      480, 0x8dc1e9a4
0,      10800,      10800,      240,      480, 0xe3c2f0ac
0,      11040,      11040,      240,      480, 0x35d0eb14
0,      11280,      11280,      240,      480, 0xfeb3ed00
0,      11520,      11520,      240,      480, 0x9da3ecb4
0,      11760,      11760,      240,      480, 0xa0e3f3c2
0,      12000,      12000,      240,      480, 0x05ffe9de
0,      12240,      12240,      240,      480, 0xf7adef05
0,      12480,      12480,      240,      480, 0x71bef669
0,      12720,      12720,      240,      480, 0x4b9feca8
0,      12960,      12960,      240,      480, 0x85e5ecd8
0,      13200,      13200,      240,      480, 0xa4cbe90e
0,      13440,      13440,      240,      480, 0xe689f958
0,      13680,      13680,      240,      480, 0xa936f168
0,      13920,      13920,      240,      480, 0x496ff059
0,      14160,      14160,      240,      480, 0x0bb6eb82
0,      14400,      14400,      240,      480, 0x7727ef53
0,      14640,      14640,      240,      480, 0xede3eaab
0,      14880,      14880,      240,      480, 0xe961ef58
0,      15120,      15120,      240,      480, 0x454fef58
0,      15360,      15360,      240,      480, 0x9305e76d
0,      15600,      15600,      240,      480, 0xfe5ce6ed
0,      15840,      15840,      240,      480, 0x84d1efdc
0,      16080,      16080,      240,      480, 0x4b23ed7a
0,      16320,      16320,      240,      480, 0x1380eb91
0,      16560,      16560,      240,      480, 0xf705eca3
0,      16800,      16800,      240,      480, 0x26f7e707
0,      17040,      17040,      240,      480, 0x3fe3f27f
0,      17280,      17280,      240,      480, 0xa030f177
0,      17520,      17520,      240,      480, 0xaf72ed92
0,      17760,      17760,      240,      480, 0x00b8f1e7
0,      18000,      18000,      240,      480, 0x681fecca
0,      18240,      18240,      240,      480, 0x3ca1ef63
0,      18480,      18480,      240,      480, 0xd6fcedac
0,      18720,      18720,      240,      480, 0x6928ed04
0,      18960,      18960,      240,      480, 0x8bdeeebe
0,      19200,      19200,      240,      480, 0x24b6f59d
0,      19440,      19440,      240,      480, 0xd49deebf
0,      19680,      19680,      240,      480, 0xe798f2c8
0,      19920,      19920,      240,      480, 0x280fefb8
0,      20160,      20160,      240,      480, 0xe0a8f40d
0,      20400,      20400,      240,      480, 0x4d48f511
0,      20640,      20640,      240,      480, 0x6bf3eef0
0,      20880,      20880,      240,      480, 0x1573f1cd
0,      21120,      21120,      240,      480, 0x6245e961
0,      21360,      21360,      240,      480, 0xe05af091
0,      21600,      21600,      240,      480, 0xfcc3e9e3
0,      21840,      21840,      240,      480, 0x6d5febae
0,      22080,      22080,      240,      480, 0x4a96ef58
0,      22320,      22320,      240,      480, 0x1586f156
0,      22560,      22560,      240,      480, 0x50b0e99e
0,      22800,      22800,      240,      480, 0xf25dfa9b
0,      23040,      23040,      240,      480, 0x49b5f932
0,      23280,      23280,      240,      480, 0xe1ddef32
0,      23520,      23520,      240,      480, 0x2307ed94
0,      23760,      23760,      240,      480, 0x6a2beb17
